<svg width="37" height="37" viewBox="0 0 37 37" fill="none" xmlns="http://www.w3.org/2000/svg">
<path fill-rule="evenodd" clip-rule="evenodd" d="M20.3395 5.13375C19.6131 3.62208 17.4606 3.62208 16.7342 5.13376L5.1998 29.137C4.56177 30.4648 5.52939 32.0033 7.00247 32.0033H30.0713C31.5443 32.0033 32.512 30.4648 31.8739 29.137L20.3395 5.13375ZM18.5368 7.33644C17.6338 7.33644 16.9018 8.09807 16.9018 9.0376V12.4399C15.9989 12.4399 15.2669 13.2016 15.2669 14.1411C15.2669 15.0806 15.9989 15.8422 16.9018 15.8422V19.2446C15.9989 19.2446 15.2669 20.0062 15.2669 20.9457C15.2669 21.8853 15.9989 22.6469 16.9018 22.6469V26.0492H12.8145C11.9116 26.0492 11.1796 26.8108 11.1796 27.7504C11.1796 28.6899 11.9116 29.4515 12.8145 29.4515H16.9018H20.1717H24.259C25.162 29.4515 25.894 28.6899 25.894 27.7504C25.894 26.8108 25.162 26.0492 24.259 26.0492H20.1717V22.6469C21.0747 22.6469 21.8066 21.8853 21.8066 20.9457C21.8066 20.0062 21.0747 19.2446 20.1717 19.2446V15.8422C21.0747 15.8422 21.8066 15.0806 21.8066 14.1411C21.8066 13.2016 21.0747 12.4399 20.1717 12.4399V9.0376C20.1717 8.09807 19.4397 7.33644 18.5368 7.33644Z" fill="white"/>
</svg>
